<?xml version="1.0" encoding="UTF-8" standalone="no"?>
<!DOCTYPE svg PUBLIC "-//W3C//DTD SVG 1.1//EN" "http://www.w3.org/Graphics/SVG/1.1/DTD/svg11.dtd">
<svg version="1.1" xmlns="http://www.w3.org/2000/svg" xmlns:xlink="http://www.w3.org/1999/xlink" preserveAspectRatio="xMidYMid meet" viewBox="0 0 410 265" width="410" height="265"><defs><path d="M56.23 110.53L150.89 86.11L160.4 100.25L274.1 73.9L276.9 89.32L309.95 88.04L316.67 108.6L336.83 112.45L354.19 178.64L340.19 188.92L342.43 205.62L287.54 224.25L274.65 258.31L190.07 248.67L172.15 266.02L120.62 266.02L118.94 250.6L38.29 255.09L39.97 240.32L19.25 237.1C20.59 222.07 21.34 213.72 21.49 212.04C21.49 212.04 5.81 207.55 6.93 203.69C6.93 203.69 9.73 131.73 9.73 131.73C10.92 131.39 16.9 129.67 27.65 126.59L27.65 113.1L56.23 110.53Z" id="c2VDtbLTj"></path><path d="M304.87 76.31C304.71 54.19 287.27 41.02 275.03 24.32C255.6 4.35 226.06 4.41 200.19 2.59C185.28 2.62 169.07 1.63 153.65 6.13C139.16 9.51 108.35 20.42 90.07 37.44C72.67 49.15 56.45 63.1 45.61 81.31C31.93 100.62 22.95 123.53 21.91 147.3C17.82 161.35 -15.6 176.62 8.89 189.24C29.41 204.16 48.31 178 68.17 186.5C83.11 195.79 101.31 198.08 117.88 192.69C131.25 187.44 143.72 175.44 159.12 179.05C173.73 195.03 197.52 172.08 212.54 187.54C245.19 189.75 277.96 187.39 310.66 188.55C331.67 194.91 350.84 170.51 334.41 153.48C324 146.48 299.94 147.82 308.39 127.7C316.33 110.54 311 92.03 305.1 75.25C304.18 71.68 303.54 68.03 303.44 64.34" id="a8YsUyCif"></path><path d="M270.03 82.3C244.78 81.19 217.56 86.78 197.98 103.43C185.47 121.71 199.38 143.14 207.99 159.87C213.14 172.21 203.74 194.03 225.16 188.75C234.02 188.73 304.94 188.57 313.8 188.55C331.3 198.55 357.24 175.02 344.45 157.46C329.16 152.8 308.32 135.46 324.83 119.3C334.05 112.21 345.99 104.94 338.32 91.85C338 87.44 337.63 82.07 333.42 79.48C313.91 90.99 291.06 81.29 270.03 82.3Z" id="b445ArEzg9"></path><path d="M347.35 55.62C355.78 41.35 376.98 19.07 393.59 33.01C398.74 43.72 390.87 59.2 405.71 63.73C408.22 73.62 399.56 81.83 409.24 91.24C416.01 106.06 396.19 125.5 381.11 117.24C367.96 109.39 356.19 104.02 342.34 113.71C322.17 120.93 329.14 89.15 325.36 78.76C317.69 64.69 350.98 73.18 347.35 55.62Z" id="b8VFIXZuE"></path><path d="M101.6 150.65C118.46 138.68 146.43 140.4 160.26 122.49C174.41 114.62 174.45 90.07 152.64 100.83C137.78 105.19 123.16 114.3 107.1 111.18C89.5 111.85 66.5 118.48 62.49 138.26C65.85 152.61 54.94 173.86 61.34 183.44C83.4 187.19 105.4 199.81 128.07 191.76C144.75 191.5 168.28 164.75 141.54 160.19C141.37 160.27 140.48 160.69 138.9 161.44C122.02 149.97 109.59 146.38 101.6 150.65Z" id="bdJTnumUQ"></path><radialGradient id="gradientadE3EeBa" gradientUnits="userSpaceOnUse" cx="104329.25" cy="40924.71" dx="-1506.19" dy="-281.38" r="113574.12"><stop style="stop-color: #d4a96d;stop-opacity: 1" offset="0%"></stop><stop style="stop-color: #d4a96d;stop-opacity: 0" offset="100%"></stop></radialGradient><path d="M119.62 149.16C105.43 146.94 102.07 144.73 105.17 143.17C122.03 133.14 144.29 139.21 158.13 124.19C172.27 117.6 176.8 90.95 154.99 99.97C140.13 103.63 125.51 111.27 109.46 108.65C91.86 109.21 71.5 116.61 67.49 133.2C70.85 145.23 46.27 175.08 52.67 183.11C74.74 186.25 107.76 182.96 130.42 176.23C147.1 176.01 170.64 153.58 143.89 149.75C139.04 149.63 124.48 149.28 119.62 149.16Z" id="disqpha8g"></path><radialGradient id="gradienta5FF77Kiv" gradientUnits="userSpaceOnUse" cx="105712.66" cy="25926.86" dx="-1516.08" dy="-220.96" r="110370.79"><stop style="stop-color: #d4a96d;stop-opacity: 1" offset="0%"></stop><stop style="stop-color: #d4a96d;stop-opacity: 0" offset="100%"></stop></radialGradient><path d="M93.76 130.94C103.31 125.82 117.77 129.7 125.6 122.02C133.62 118.66 135.03 105 122.67 109.61C114.26 111.47 105.98 115.37 96.88 114.04C86.91 114.32 73.88 117.16 71.61 125.64C73.51 131.78 67.33 140.88 70.95 144.98C83.45 146.59 95.91 151.99 108.75 148.55C118.2 148.44 131.54 136.98 116.39 135.03C116.29 135.06 115.79 135.24 114.89 135.56C105.33 130.65 98.29 129.11 93.76 130.94Z" id="fjPLOLjZe"></path><radialGradient id="gradienta1dbWeOPhF" gradientUnits="userSpaceOnUse" cx="30129.32" cy="5583.61" dx="-841.62" dy="-54.44" r="31479.95"><stop style="stop-color: #d4a96d;stop-opacity: 1" offset="0%"></stop><stop style="stop-color: #d4a96d;stop-opacity: 0" offset="100%"></stop></radialGradient><path d="M304.87 76.31C304.71 54.19 287.27 41.02 275.03 24.32C255.6 4.35 226.06 4.41 200.19 2.59C185.28 2.62 171.93 6.52 157.73 8.57C135.08 17.67 108.35 20.42 90.07 37.44C72.67 49.15 56.45 63.1 45.61 81.31C31.93 100.62 22.95 123.53 21.91 147.31C17.82 161.35 -15.6 176.62 8.89 189.24C29.41 204.16 48.31 178.01 68.17 186.5C83.11 195.79 101.31 198.08 117.88 192.69C131.25 187.44 143.72 175.44 159.12 179.05C173.73 195.03 197.52 172.08 212.54 187.54C245.19 189.75 277.96 187.39 310.66 188.55C331.67 194.91 350.84 170.51 334.41 153.48C324 146.48 299.94 147.82 308.39 127.7C316.33 110.54 311 92.03 305.1 75.25C304.18 71.68 303.54 68.03 303.44 64.34" id="h5OxAlNGEB"></path><radialGradient id="gradienta2H3BFGVcE" gradientUnits="userSpaceOnUse" cx="160.9" cy="65.49" dx="410.43" dy="-273.86" r="421.22"></radialGradient><path d="M317.3 131.43C316.81 132.36 312.91 139.81 312.42 140.74C311.53 143.32 310.12 145.22 308.73 147.14C307.17 149.26 305.42 150.96 303.58 152.43C301.04 154.35 298.38 155.85 295.65 156.92C293.25 157.64 290.89 158.62 288.54 159.61C285.68 161.15 282.68 161.74 279.74 162.67C277 163.74 274.19 164.11 271.39 164.37C268.78 164.57 266.17 164.56 263.56 164.56C262.85 164.56 259.3 164.55 252.9 164.55L247.81 164.54L250.87 163.79L255.98 163.8C259.68 163.81 261.74 163.81 262.15 163.81C261.6 163.82 261.05 163.81 260.51 163.81C263.11 163.81 265.72 163.83 268.32 163.65C271.13 163.42 273.94 163.09 276.67 162.02C279.61 161.05 282.63 160.59 285.47 158.99C287.83 158.02 290.18 156.96 292.59 156.3C295.32 155.27 297.97 153.8 300.5 151.9C302.34 150.49 304.07 148.82 305.63 146.73C307.03 144.87 308.45 142.98 309.33 140.43C310.92 137.27 312.6 134.23 314.22 131.1C315.94 127.9 317.72 124.81 319.77 122.11C319.98 122.14 321.02 122.29 322.89 122.56C320.31 126.35 318.44 129.31 317.3 131.43Z" id="aeXn8kPS"></path><path d="M347.35 55.62C355.78 41.35 376.98 19.07 393.59 33.01C398.74 43.72 390.87 59.2 405.71 63.73C408.22 73.62 399.56 81.83 409.24 91.24C416.01 106.06 396.19 125.5 381.11 117.24C367.96 109.39 356.19 104.02 342.34 113.71C322.17 120.93 329.14 89.15 325.36 78.76C317.69 64.69 350.98 73.18 347.35 55.62Z" id="c4yKUCXJ1X"></path><radialGradient id="gradientf1rvB8kptm" gradientUnits="userSpaceOnUse" cx="367.5" cy="100.69" dx="336.33" dy="-552.21" r="653.64"></radialGradient><path d="M125.23 148.01C118.91 147.76 109.41 144.96 103.41 144.29C108.95 142.81 115.73 140.4 120.95 137.98C127.33 135.06 134.09 132.94 141.1 132.32C150.5 130.6 160.81 125.59 163.5 115.63C165.07 110.01 171.17 99.57 164.29 96.28C157.82 95.86 152.32 100.27 146.96 103.33C140.9 107.28 133.76 109.87 126.45 109.04C115.12 109.08 103.79 109.05 92.46 109.02C95.03 109.66 86.79 110.54 85.67 111.76C77.35 117.9 71.36 126.86 66.75 136.04C63.97 142.6 62.46 149.74 58.47 155.77C54.41 163.29 48.19 170.73 49.15 179.83C51.63 186 59.26 184.37 64.51 185.47C72.79 187.51 75.36 189.7 82.8 193.82C94.56 198.74 124.82 193.86 133.1 184.94C142.14 178.49 143.26 183.3 152.22 176.5C158.29 172.97 162.95 165.21 160.08 158.21C162.91 153.91 164.96 164.89 162.51 167.26C158.67 177.25 147.32 181.42 137.38 181.84C135.14 182.42 135.36 183.41 132.48 185.35C124.02 192.94 103.49 196.83 92.69 194.35C85.52 191.68 75.1 189.09 67.56 187.33C62.01 185.61 56.17 185.24 50.51 184.18C43.43 180.15 47.49 170.59 50.63 165.14C55.37 156.58 60.97 148.29 63.16 138.6C67.43 128.87 73.58 119.73 81.63 112.75C89.79 106.93 98.89 107.36 108.23 107.04C116.4 106.88 125.91 109.27 134 107.95C144.38 105.15 152.16 95.81 163.34 95.36C171.4 94.64 170.7 104.69 168.04 109.6C166.08 117.36 162.37 125.54 154.57 128.93C144.34 133.99 132.21 133.07 122.18 138.74C116.36 140.95 110.42 144.71 104.03 144.05C111.27 143.55 117.34 146.99 124.59 147.03C131.72 146.23 140.61 151.46 136.04 157.92C135.29 158.53 134.37 159.17 133.36 158.93C138.2 152.65 132.57 147.12 125.23 148.01Z" id="fSqHS0Udo"></path><path d="M295.93 56.84C313.65 43.97 332.72 32.95 350.7 20.76C358.88 11.62 382.12 10.5 370.87 27.41C362.71 45.3 395.77 46.43 386.75 63.42C384.7 89.29 355.09 78 337.82 78.89C311.52 88.67 296.4 57.07 297.33 56.08C297.87 53.66 301.81 53.52 303.43 51.64" id="f2vOsOH2"></path><path d="M297.23 54.81C314.95 41.95 332.14 32.95 350.13 20.75C358.3 11.62 381.55 10.5 370.29 27.41C362.14 45.29 395.19 46.43 386.18 63.41C384.12 89.28 354.51 78 337.24 78.89C322.07 81.46 311.98 95.73 298.77 59.1C296.86 57.26 296.47 55.97 298.09 54.09" id="kg3K8QrBo"></path><radialGradient id="gradientabgovPynSJ" gradientUnits="userSpaceOnUse" cx="336.89" cy="70.69" dx="452.85" dy="-363.1" r="449.02"></radialGradient><path d="M249.63 37.53C229.72 50.03 210.53 64.38 187.91 71.69C161.51 81.43 134.29 89.22 106.52 93.83C95.3 95.17 83.39 96.31 72.48 93.05C63.35 86.67 66.13 73.53 70.1 64.77C93.96 24.97 138.19 15.52 157.46 11.96C194.21 7.92 219.9 3.66 253.31 13.92C261.8 19.7 258.25 33.73 249.63 37.53Z" id="bntOb7XpK"></path><linearGradient id="gradienta1QfVQiJC2" gradientUnits="userSpaceOnUse" x1="140.07" y1="-5.8" x2="173.53" y2="75"></linearGradient></defs><g><g><use xlink:href="#c2VDtbLTj" opacity="1" fill="#2b1100" fill-opacity="1"></use><g><use xlink:href="#c2VDtbLTj" opacity="1" fill-opacity="0" stroke="#000000" stroke-width="0.23" stroke-opacity="1"></use></g></g><g><use xlink:href="#a8YsUyCif" opacity="1" fill="#be8d48" fill-opacity="1"></use><g><use xlink:href="#a8YsUyCif" opacity="1" fill-opacity="0" stroke="#000000" stroke-width="1.6" stroke-opacity="1"></use></g></g><g><use xlink:href="#b445ArEzg9" opacity="1" fill="#be8d48" fill-opacity="1"></use><g><use xlink:href="#b445ArEzg9" opacity="1" fill-opacity="0" stroke="#000000" stroke-width="1.6" stroke-opacity="1"></use></g></g><g><use xlink:href="#b8VFIXZuE" opacity="1" fill="#ffffff" fill-opacity="1"></use><g><use xlink:href="#b8VFIXZuE" opacity="1" fill-opacity="0" stroke="#000000" stroke-width="1.6" stroke-opacity="1"></use></g></g><g><use xlink:href="#bdJTnumUQ" opacity="1" fill="url(#gradientadE3EeBa)"></use><g><use xlink:href="#bdJTnumUQ" opacity="1" fill-opacity="0" stroke="#000000" stroke-width="1" stroke-opacity="0"></use></g></g><g><use xlink:href="#disqpha8g" opacity="1" fill="url(#gradienta5FF77Kiv)"></use><g><use xlink:href="#disqpha8g" opacity="1" fill-opacity="0" stroke="#000000" stroke-width="1" stroke-opacity="0"></use></g></g><g><use xlink:href="#fjPLOLjZe" opacity="1" fill="url(#gradienta1dbWeOPhF)"></use><g><use xlink:href="#fjPLOLjZe" opacity="1" fill-opacity="0" stroke="#000000" stroke-width="1" stroke-opacity="0"></use></g></g><g><use xlink:href="#h5OxAlNGEB" opacity="1" fill="url(#gradienta2H3BFGVcE)"></use><g><use xlink:href="#h5OxAlNGEB" opacity="1" fill-opacity="0" stroke="#000000" stroke-width="1" stroke-opacity="0"></use></g></g><g><use xlink:href="#aeXn8kPS" opacity="1" fill="#000000" fill-opacity="1"></use><g><use xlink:href="#aeXn8kPS" opacity="1" fill-opacity="0" stroke="#000000" stroke-width="1" stroke-opacity="0"></use></g></g><g><use xlink:href="#c4yKUCXJ1X" opacity="1" fill="url(#gradientf1rvB8kptm)"></use><g><use xlink:href="#c4yKUCXJ1X" opacity="1" fill-opacity="0" stroke="#000000" stroke-width="1.6" stroke-opacity="1"></use></g></g><g><use xlink:href="#fSqHS0Udo" opacity="1" fill="#000000" fill-opacity="1"></use><g><use xlink:href="#fSqHS0Udo" opacity="1" fill-opacity="0" stroke="#000000" stroke-width="1" stroke-opacity="0"></use></g></g><g><use xlink:href="#f2vOsOH2" opacity="1" fill="#ffffff" fill-opacity="1"></use><g><use xlink:href="#f2vOsOH2" opacity="1" fill-opacity="0" stroke="#000000" stroke-width="1" stroke-opacity="0"></use></g></g><g><use xlink:href="#kg3K8QrBo" opacity="1" fill="url(#gradientabgovPynSJ)"></use><g><use xlink:href="#kg3K8QrBo" opacity="1" fill-opacity="0" stroke="#000000" stroke-width="1.6" stroke-opacity="1"></use></g></g><g><use xlink:href="#bntOb7XpK" opacity="1" fill="url(#gradienta1QfVQiJC2)"></use><g><use xlink:href="#bntOb7XpK" opacity="1" fill-opacity="0" stroke="#000000" stroke-width="1" stroke-opacity="0"></use></g></g></g></svg>